<?xml version="1.0" encoding="utf-8"?>
<!-- Generator: Adobe Illustrator 26.5.0, SVG Export Plug-In . SVG Version: 6.00 Build 0)  -->
<svg version="1.1" id="Layer_1" xmlns="http://www.w3.org/2000/svg" xmlns:xlink="http://www.w3.org/1999/xlink" x="0px" y="0px"
	 viewBox="0 0 255 127" style="enable-background:new 0 0 255 127;" xml:space="preserve">
<path d="M0,63.5C0,127,0,127,127.5,127S255,127,255,63.5S255,0,127.5,0S0,0,0,63.5 M56.6,35.3c0.1,0.1,0.6,3,0.9,6.2
	c0.7,6,0.7,6-7.7,6c-12.3,0-17.8,3.1-14.9,8.4c0.6,1.1,5.1,4.1,10.1,6.7c6.7,3.5,9.7,5.7,11.6,8.5c4.6,7,2.9,16.1-4,21.4
	c-5.7,4.3-11.3,5.8-24.9,6.3c-14.4,0.6-13.1,1.4-14.1-8.5C13.2,86,13.2,86,22.6,86c10.3,0,16.9-1.9,17.7-5c0.9-3.6-1.7-6.5-9.7-10.5
	c-9.2-4.6-13-8-14.6-13c-1.6-4.9-0.5-9.8,3.3-14.1c4-4.6,10-7.3,18.6-8.3C43.5,34.3,55.8,34.5,56.6,35.3 M85.4,56
	c4.8,12.1,9.1,22.2,9.6,22.5c0.4,0.3,4.7-9.3,9.5-21.2c4.8-12,9-22.1,9.4-22.5c1-1,14.2,3.4,14.1,4.7c0,0.6-5.8,14.1-12.8,30
	c-12.7,29-12.7,29-20.5,29S86.9,98.5,74,69C67,52.8,61.4,39.3,61.6,39.1c0.4-0.4,12.9-4.7,14.4-5C76.4,34,80.6,43.9,85.4,56
	 M182.4,39.6c1.2,8.5,1.6,8-8.2,8.6c-17.2,1.1-27.1,8.3-27.1,19.7c0,8.6,6.4,15.8,16,18c8.3,1.9,7.9,2.4,8.2-9.7
	c0.3-10.8,0.3-10.8,7.6-10.8s7.3,0,7.2,16c-0.1,8.8-0.4,16.2-0.7,16.5c-1,1-19.8,0.3-25.9-1C142,93.4,131,81.8,131,66.7
	c0-12.9,6.5-21.6,20.8-27.6c7.1-3,12-3.9,21.8-4C181.7,35,181.7,35,182.4,39.6 M245,41.5c0,6.5,0,6.5-10.5,6.5S224,48,224,73
	s0,25-8.1,25c-8.1,0-8.1,0-7.9-14.8c0.1-8.1,0.2-19.4,0.1-25C208,48,208,48,197.5,48S187,48,187,42.2c0-3.2,0.3-6.1,0.7-6.5
	c0.4-0.4,13.4-0.7,29-0.7C245,35,245,35,245,41.5z"/>
</svg>
