<?xml version="1.0" encoding="utf-8"?>
<!-- Generator: Adobe Illustrator 26.5.0, SVG Export Plug-In . SVG Version: 6.00 Build 0)  -->
<svg version="1.1" id="Layer_1" xmlns="http://www.w3.org/2000/svg" xmlns:xlink="http://www.w3.org/1999/xlink" x="0px" y="0px"
	 viewBox="0 0 272 127" style="enable-background:new 0 0 272 127;" xml:space="preserve">
<path d="M0,63.5C0,127,0,127,136,127s136,0,136-63.5S272,0,136,0S0,0,0,63.5 M124.8,41.2c0.3,6.8,0.3,6.8-10.2,6.8
	C104,48,104,48,104,73s0,25-8.5,25S87,98,87,73s0-25-10.5-25S66,48,66,41.7c0-3.5,0.3-6.6,0.7-7s13.5-0.6,29.2-0.4
	C124.5,34.5,124.5,34.5,124.8,41.2 M244,43c0,6,0,6,8.1,6s8.1,0,7.7,5.8c-0.3,5.8-0.3,5.8-8,6S244,61.1,244,71
	c0,5.4,0.3,10.6,0.6,11.5c1,2.5,5.8,4.5,10.9,4.5c4.6,0,4.6,0,3.9,5.2c-0.4,2.9-0.9,5.6-1.2,6.1c-0.9,1.5-15.7,0-20.5-2.2
	c-2.5-1.1-5.6-3.5-6.9-5.4c-2.2-3.1-2.4-4.5-2.8-16.6C227.8,61,227.8,61,224.4,61c-3.4,0-3.4,0-3.4-6s0-6,4-6s4,0,4-6s0-6,7.5-6
	S244,37,244,43 M52.4,51.4c12,7,15.9,22.8,8.9,35.6c-6,11-21.2,15.7-33.9,10.5C18.6,93.9,13,84.8,13,73.7c0-7.9,1.8-12.8,6.3-17.6
	c5.9-6.2,11.5-8.2,21.3-7.8C46.2,48.6,48.8,49.3,52.4,51.4 M151.1,49.2c8.1,2.8,13.4,10,14.4,19.8c0.5,5.1,0.5,5.1-16,5.1
	s-16.6,0-15.9,2.2c2.1,7.2,7.3,10,19.9,10.7c9,0.5,9,0.5,8.7,5c-0.5,7-1.2,7.3-12.1,6.7c-21.1-1.2-32-10-32-25.8
	c0-14.6,10-24.6,24.6-24.8C145.4,48,149.2,48.5,151.1,49.2 M188.5,56c2.8,4.4,5.3,8,5.7,8c0.4,0,3-3.6,5.8-8.1
	c2.9-4.5,5.7-7.8,6.3-7.6c0.6,0.3,3.5,1.3,6.4,2.2c2.9,1,5.2,2.1,5.2,2.6s-2.7,4.9-6.1,9.9c-3.3,5-5.9,9.6-5.6,10.3
	c0.3,0.7,3.2,5.4,6.6,10.5c5.5,8.3,6.9,11.1,5.7,11.1c-0.2,0-3.3,1.1-6.9,2.5c-6.5,2.5-6.5,2.5-12.2-6.5c-3.1-4.9-5.8-9-6-9
	c-0.2,0-2.7,3.7-5.6,8.2c-2.9,4.5-5.6,8.6-5.9,9c-0.8,1-12.3-3.5-12.7-4.9c-0.2-0.6,2.6-5.5,6.3-10.8c6.6-9.7,6.6-9.7,0.6-18.9
	c-3.3-5-6.2-9.8-6.3-10.5c-0.3-1.2,9.5-5.8,12.7-6C183.1,48.1,185.8,51.7,188.5,56 M135.9,60.9c-5.1,5.1-4.2,6.1,6.1,6.1
	c4.9,0,9-0.2,9-0.6c0-0.3-0.7-1.9-1.5-3.5C146.5,57.2,140.5,56.3,135.9,60.9 M33.7,61.1c-2.4,1.4-5.6,8.5-5.6,12.6
	c-0.1,9.9,7.7,16.6,15,12.8c7.5-3.9,8.1-19.8,0.9-24.9C41.2,59.8,36.4,59.5,33.7,61.1z"/>
</svg>
