<?xml version="1.0" encoding="utf-8"?>
<!-- Generator: Adobe Illustrator 26.5.0, SVG Export Plug-In . SVG Version: 6.00 Build 0)  -->
<svg version="1.1" id="Layer_1" xmlns="http://www.w3.org/2000/svg" xmlns:xlink="http://www.w3.org/1999/xlink" x="0px" y="0px"
	 viewBox="0 0 288 127" style="enable-background:new 0 0 288 127;" xml:space="preserve">
<path d="M0,63.5C0,127,0,127,144,127s144,0,144-63.5S288,0,144,0S0,0,0,63.5 M161.8,63.2C162,98,162,98,154,98s-8,0-8-34.3
	c0-18.9,0.3-34.7,0.7-35c0.4-0.4,3.9-0.6,7.8-0.4C161.5,28.5,161.5,28.5,161.8,63.2 M47.4,35.5C66,38.8,76.7,48.9,77.8,64.1
	c1.1,15.7-8.6,27.7-26.1,32.3c-7.6,2-21.1,3-28.1,2.1C18,97.9,18,97.9,18,65.9S18,34,28.8,34C34.7,34.1,43,34.7,47.4,35.5
	 M136.4,38.6c1.3,9.3,1.6,8.8-7.8,10c-15.4,1.9-24.6,8.5-24.5,17.7c0,5.4,2.8,9.8,8.3,13.1c4.7,2.8,15.6,5.5,22,5.5
	c3.8,0,3.8,0,3.1,6.3c-0.4,3.4-0.9,6.7-1.2,7.1c-0.9,1.4-18.2-0.1-24.8-2.2C90.7,89.7,81,71.5,89.1,54.3
	c3.7-7.8,14.2-15.5,24.9-18.1c7.3-1.8,8.2-2,15.1-2.1C135.7,34,135.7,34,136.4,38.6 M34.8,66.2c-0.3,19-0.3,19,5.1,18.5
	c11.2-1.2,19.7-7.9,20.8-16.5c1.5-10.9-6.7-18.5-21.9-20.6C35.1,47.1,35.1,47.1,34.8,66.2 M209.5,50.8c8.3,4.3,13.4,12.8,13.5,22.4
	c0,10.8-4.3,18.5-13.1,23.4c-4.6,2.5-6.4,2.9-12.9,2.9c-6.1,0-8.4-0.5-12.7-2.7c-19.3-10-17.3-39.6,3.3-47.3
	C193,47.4,204.3,48.1,209.5,50.8 M246.5,56c2.8,4.4,5.3,8,5.7,8c0.4,0,3-3.6,5.8-8.1c2.9-4.5,5.7-7.8,6.3-7.6
	c0.6,0.3,3.5,1.3,6.4,2.2c2.9,1,5.2,2.1,5.2,2.6s-2.7,4.9-6.1,9.9c-3.3,5-5.9,9.6-5.6,10.3c0.3,0.7,3.2,5.4,6.6,10.5
	c5.5,8.3,6.9,11.1,5.7,11.1c-0.2,0-3.3,1.1-6.9,2.5c-6.5,2.5-6.5,2.5-12.2-6.5c-3.1-4.9-5.8-9-6-9c-0.2,0-2.7,3.7-5.6,8.2
	c-2.9,4.5-5.6,8.6-5.9,9c-0.8,1-12.3-3.5-12.7-4.9c-0.2-0.6,2.6-5.5,6.3-10.8c6.6-9.7,6.6-9.7,0.6-18.9c-3.3-5-6.2-9.8-6.3-10.5
	c-0.3-1.2,9.5-5.8,12.7-6C241.1,48.1,243.8,51.7,246.5,56 M190.3,63.5c-3.5,3.5-3.5,3.6-3.1,10.9c0.3,6.1,0.8,7.9,2.7,9.9
	c7.1,7.5,17.3,1.4,17.3-10.3C207.2,61.6,198,55.8,190.3,63.5z"/>
</svg>
