<?xml version="1.0" encoding="utf-8"?>
<!-- Generator: Adobe Illustrator 26.5.0, SVG Export Plug-In . SVG Version: 6.00 Build 0)  -->
<svg version="1.1" id="Layer_1" xmlns="http://www.w3.org/2000/svg" xmlns:xlink="http://www.w3.org/1999/xlink" x="0px" y="0px"
	 viewBox="0 0 280 127" style="enable-background:new 0 0 280 127;" xml:space="preserve">
<path d="M0,63.5C0,127,0,127,140,127s140,0,140-63.5S280,0,140,0S0,0,0,63.5 M153.7,63.2C153.9,98,153.9,98,146,98c-8,0-8,0-8-34.3
	c0-18.9,0.3-34.7,0.7-35c0.4-0.4,3.9-0.6,7.8-0.4C153.5,28.5,153.5,28.5,153.7,63.2 M51.6,35.3c7.2,1.5,10.8,3.6,13.4,8
	c3.5,5.7,2.2,12.4-3.4,17.6c-2.5,2.4-2.5,2.4,1.6,4.5c13.5,6.8,10.9,24.7-4.3,30.1c-6,2.1-23.6,3.6-33.2,2.8
	C18,97.7,18,97.7,18,65.9S18,34,31.8,34C39.3,34,48.3,34.6,51.6,35.3 M127.3,34.8c0.2,0.4,0.8,3.5,1.1,6.9c0.7,6.1,0.7,6.1-6.1,6.8
	c-10.6,1-17.1,3.4-22,8.1c-4.1,3.9-4.3,4.4-4.3,9.9c0,5.4,0.3,6.1,3.8,9.5c4.7,4.7,12.7,7.7,22.7,8.6c7.6,0.7,7.6,0.7,7,5.3
	c-1.3,10.2-0.4,9.5-10.8,8.8C98,97.4,83.6,88.7,79,74.7c-1.7-5.1-0.9-15.1,1.5-20.2c4.1-8.5,14.8-15.9,27.2-18.9
	C114,34.1,126.6,33.5,127.3,34.8 M34,65.5c0,20.7,0,20.7,8.1,20.4c7.4-0.3,8.3-0.6,10.5-3.2c3-3.5,3.1-6.8,0.1-10.3
	c-1.9-2.2-3.4-2.8-8-3.2c-3.2-0.3-5.7-1-5.7-1.6c0-0.6-0.3-2.1-0.6-3.3c-0.5-1.9-0.1-2.3,2.8-2.8c5.8-1.1,9.6-5.6,8.4-10.1
	c-0.8-3.3-4.1-5.2-10.3-6C34,44.7,34,44.7,34,65.5 M202.4,51.4c11.9,7,15.9,22.8,8.9,35.6c-6,11-21.2,15.7-33.9,10.5
	c-8.9-3.7-14.5-12.8-14.5-23.8c0-7.9,1.8-12.8,6.3-17.6c5.9-6.2,11.5-8.2,21.3-7.8C196.2,48.6,198.8,49.3,202.4,51.4 M238.5,56
	c2.8,4.4,5.3,8,5.7,8c0.4,0,3-3.6,5.8-8.1c2.9-4.5,5.7-7.8,6.3-7.6c0.6,0.3,3.5,1.3,6.4,2.2c2.9,1,5.2,2.1,5.2,2.6s-2.7,4.9-6.1,9.9
	c-3.3,5-5.9,9.6-5.6,10.3c0.3,0.7,3.2,5.4,6.6,10.5c5.5,8.3,6.9,11.1,5.7,11.1c-0.2,0-3.3,1.1-6.9,2.5c-6.5,2.5-6.5,2.5-12.2-6.5
	c-3.1-4.9-5.8-9-6-9c-0.2,0-2.7,3.7-5.6,8.2c-2.9,4.5-5.6,8.6-5.9,9c-0.8,1-12.3-3.5-12.7-4.9c-0.2-0.6,2.6-5.5,6.3-10.8
	c6.6-9.7,6.6-9.7,0.6-18.9c-3.3-5-6.2-9.8-6.3-10.5c-0.3-1.2,9.5-5.8,12.7-6C233.1,48.1,235.8,51.7,238.5,56 M183.7,61.1
	c-2.4,1.4-5.6,8.5-5.6,12.6c-0.1,9.9,7.7,16.6,15,12.8c7.5-3.9,8.1-19.8,0.9-24.9C191.2,59.8,186.4,59.5,183.7,61.1z"/>
</svg>
