<?xml version="1.0" encoding="utf-8"?>
<!-- Generator: Adobe Illustrator 26.5.0, SVG Export Plug-In . SVG Version: 6.00 Build 0)  -->
<svg version="1.1" id="Layer_1" xmlns="http://www.w3.org/2000/svg" xmlns:xlink="http://www.w3.org/1999/xlink" x="0px" y="0px"
	 viewBox="0 0 241 127" style="enable-background:new 0 0 241 127;" xml:space="preserve">
<style type="text/css">
	.st0{fill:#FF7F00;}
</style>
<path class="st0" d="M0,63.5C0,127,0,127,120.5,127S241,127,241,63.5S241,0,120.5,0S0,0,0,63.5 M224.5,63.5c0,35,0,35-7,35.3
	c-22.9,1-38-6.6-40.6-20.3c-2.2-12,4.7-22.4,17.6-26.4c3.7-1.1,7.8-2.1,9-2.1c5.2,0,5.5-0.5,5.5-11.6c0-10.4,0-10.4,7.8-10.1
	S224.5,28.5,224.5,63.5 M32.5,37c0,5.5,0,5.5-8.2,5.8C16,43.1,16,43.1,16,37s0-6.1,8.2-5.8C32.5,31.5,32.5,31.5,32.5,37 M168,37
	c0,6,0,6-8,6s-8,0-8-6s0-6,8-6S168,31,168,37 M95.4,37.8c0.3,2.1,0.6,5.2,0.6,7c0,3.2,0,3.2-4.9,3.2C79.4,48,67.3,52.4,63,58.1
	c-2.5,3.3-3.7,10.1-2.7,14.2c1.6,6.3,9.9,12.3,18.4,13.3c4.7,0.6,4.7,0.6,4.7-10.3s0-10.9,6-11.2c11.2-0.6,10.5-1.6,10.5,17.3
	c0,19.4,1.2,18.1-15.9,17.2C67.5,97.8,56.8,93.4,48.8,84c-4.2-4.9-5.8-9.8-5.8-18.4c0-8.3,2.5-14,8.5-19.5c8.6-8,20.1-11.9,35.1-12
	C94.7,34,94.7,34,95.4,37.8 M145.6,53.8c0.9,3.2,1.8,6,2,6.3s-4.5,2.4-10.4,4.7c-10.7,4.1-10.7,4.1-10.4,18.7
	C127.1,98,127.1,98,119,98s-8.1,0-8.1-24.5s0-24.5,7.5-24.5s7.5,0,7.5,3c0,1.7,0.2,3,0.4,3c0.2,0,3.7-1.6,7.7-3.5s7.9-3.5,8.6-3.5
	S144.7,50.6,145.6,53.8 M32,73.5C32,98,32,98,24.5,98S17,98,17,73.5S17,49,24.5,49S32,49,32,73.5 M167.8,73.8
	C168.1,98,168.1,98,160,98c-8,0-8,0-8-24.5s0-24.5,7.8-24.2S167.5,49.5,167.8,73.8 M199.3,63.5c-7.7,3.3-9.6,14.2-3.4,19.7
	c2.9,2.6,8.6,4.8,12.4,4.8c1.6,0,1.8-1.3,1.8-13c0-13,0-13-3.8-13C204.2,62.1,201,62.7,199.3,63.5z"/>
</svg>
