<?xml version="1.0" standalone="no"?><!DOCTYPE svg PUBLIC "-//W3C//DTD SVG 20010904//EN" "http://www.w3.org/TR/2001/REC-SVG-20010904/DTD/svg10.dtd"><svg version="1.0" xmlns="http://www.w3.org/2000/svg"preserveAspectRatio="xMidYMid meet"><path d="M0 63.500 C 0 127,0 127,119 127 C 238 127,238 127,238 63.500 C 238 0,238 0,119 0 C 0 0,0 0,0 63.500 M47.358 35.470 C 65.991 38.791,76.679 48.857,77.775 64.116 C 78.903 79.832,69.185 91.852,51.661 96.416 C 44.083 98.390,30.543 99.423,23.608 98.557 C 18 97.856,18 97.856,18 65.928 C 18 34,18 34,28.750 34.035 C 34.663 34.054,43.036 34.700,47.358 35.470 M158 43 C 158 49,158 49,166 49 C 174 49,174 49,174 55 C 174 61,174 61,165.909 61 C 157.818 61,157.818 61,158.159 71.475 C 158.578 84.338,159.645 85.904,168.649 86.872 C 175.086 87.563,174.832 87.091,173.434 95.750 C 172.917 98.951,172.828 99,167.504 99 C 158.136 99,152.105 97.170,147.584 92.956 C 143.500 89.149,143.500 89.149,143.174 75.074 C 142.849 61,142.849 61,138.924 61 C 135 61,135 61,135 55 C 135 49,135 49,139 49 C 143 49,143 49,143 43 C 143 37,143 37,150.500 37 C 158 37,158 37,158 43 M34.791 66.185 C 34.500 85.230,34.500 85.230,39.867 84.675 C 51.084 83.515,59.544 76.817,60.703 68.178 C 62.168 57.255,54.049 49.640,38.791 47.628 C 35.083 47.139,35.083 47.139,34.791 66.185 M209.905 48.973 C 218.704 51.496,225 59.932,225 69.196 C 225 74,225 74,209 74 C 191.512 74,191.489 74.009,194.960 79.701 C 197.962 84.626,202.192 86.316,212.750 86.808 C 222 87.239,222 87.239,222 90.554 C 222 92.378,221.561 95.024,221.025 96.435 C 220.119 98.816,219.595 99,213.708 99 C 190.866 99,177.685 89.478,177.719 73.002 C 177.744 60.891,183.905 52.307,194.994 48.934 C 198.626 47.829,205.984 47.848,209.905 48.973 M114.436 50.088 C 116.814 50.687,120.397 52.527,122.400 54.178 C 128.840 59.487,129.403 61.500,129.822 80.706 C 130.265 101.088,131.916 99.434,111.724 98.843 C 100.104 98.502,97.900 98.155,93.552 95.978 C 86.994 92.694,84.663 89.362,84.753 83.405 C 84.884 74.747,91.437 69.875,105.750 67.793 C 110.287 67.133,114 66.320,114 65.988 C 114 65.655,113.425 64.597,112.723 63.636 C 111.064 61.367,105.208 60.054,96.619 60.024 C 89.738 60,89.738 60,90.358 56.250 C 90.699 54.188,90.983 51.712,90.989 50.750 C 90.999 49.206,92.126 49,100.557 49 C 105.814 49,112.059 49.490,114.436 50.088 M197.217 59.561 C 195.991 60.419,194.305 62.444,193.469 64.061 C 191.949 67,191.949 67,201.422 67 C 210.896 67,210.896 67,209.845 63.984 C 207.905 58.419,201.866 56.304,197.217 59.561 M110.002 75.100 C 101.578 76.749,98.071 81.396,101.787 85.985 C 103.239 87.778,104.960 88.415,109.334 88.778 C 115 89.248,115 89.248,115 81.624 C 115 77.431,114.888 74.049,114.750 74.110 C 114.612 74.170,112.476 74.615,110.002 75.100Z" /></svg>