<?xml version="1.0" encoding="utf-8"?>
<!-- Generator: Adobe Illustrator 26.5.0, SVG Export Plug-In . SVG Version: 6.00 Build 0)  -->
<svg version="1.1" id="Layer_1" xmlns="http://www.w3.org/2000/svg" xmlns:xlink="http://www.w3.org/1999/xlink" x="0px" y="0px"
	 viewBox="0 0 219 127" style="enable-background:new 0 0 219 127;" xml:space="preserve">
<path d="M0,63.5C0,127,0,127,109.5,127S219,127,219,63.5S219,0,109.5,0S0,0,0,63.5 M148,63c0,35,0,35-7.5,35s-7.5,0-7.5-35
	s0-35,7.5-35S148,28,148,63 M50.3,36.4c13.5,4.2,19.8,15,16.1,27.6C63.7,73.2,54.6,78.8,40,80.5c-5.5,0.6-5.5,0.6-5.5,8.8
	c0,8.2,0,8.2-8.2,8.5C18,98.1,18,98.1,18,65.9s0-32.2,13.8-31.6C39.4,34.6,47.6,35.5,50.3,36.4 M34,58.4C34,70,34,70,37,70
	c4.2,0,9.4-2.3,11.3-5.1c2.7-3.8,2.1-10.3-1.2-14c-2.3-2.6-3.8-3.2-8-3.6C34,46.7,34,46.7,34,58.4 M106.2,49.4
	c17.4,5.2,23.2,27.8,10.8,41.9c-4.9,5.6-11.2,8.2-19.5,8.2c-7.9,0-12.9-1.9-18.1-6.7c-5.4-5-7.9-11.2-7.8-19.8
	C71.7,55.3,88.3,44,106.2,49.4 M175.8,62.8c3,7.8,5.8,14.2,6.1,14.2s2.4-4.6,4.6-10.2c7.9-20.6,6.5-18.9,14.1-16.7
	c3.7,1.1,6.9,2.1,7.2,2.4c0.4,0.4-24.6,59.3-27.9,65.7c-0.8,1.5-1.4,1.5-7.1,0.1c-3.4-0.8-6.6-1.9-7.1-2.3c-0.4-0.4,1-4.8,3.2-9.7
	c2.2-5,4.1-9.3,4.1-9.7c0-0.4-4.1-10.3-9.2-22.1c-5-11.8-8.9-21.7-8.6-22c0.7-0.7,13.1-4.3,14.2-4C169.9,48.5,172.7,55,175.8,62.8
	 M92.1,61.6c-7.3,5.1-6.5,21,1.2,25c2.5,1.3,3.7,1.4,6.9,0.4c6.3-1.9,9.2-10.2,6.7-19.3C105.1,61,97.5,57.8,92.1,61.6z"/>
</svg>
