<?xml version="1.0" encoding="utf-8"?>
<!-- Generator: Adobe Illustrator 26.5.0, SVG Export Plug-In . SVG Version: 6.00 Build 0)  -->
<svg version="1.1" id="Layer_1" xmlns="http://www.w3.org/2000/svg" xmlns:xlink="http://www.w3.org/1999/xlink" x="0px" y="0px"
	 viewBox="0 0 280 127" style="enable-background:new 0 0 280 127;" xml:space="preserve">
<path d="M0,63.5C0,127,0,127,140,127s140,0,140-63.5S280,0,140,0S0,0,0,63.5 M128.4,30.9c0.3,0.5,0.3,6.3-0.1,13
	C127.7,56,127.7,56,121.5,56s-6.2,0-6.8-5.2c-0.3-2.9-0.6-8.7-0.6-13c0-7.8,0-7.8,6.9-7.8C124.8,30,128.1,30.4,128.4,30.9
	 M50.3,36.4c13.5,4.2,19.8,15,16.1,27.6C63.7,73.2,54.6,78.8,40,80.5c-5.5,0.6-5.5,0.6-5.5,8.8c0,8.2,0,8.2-8.2,8.5
	C18,98.1,18,98.1,18,65.9s0-32.2,13.8-31.6C39.4,34.6,47.6,35.5,50.3,36.4 M34,58.4C34,70,34,70,37,70c4.2,0,9.4-2.3,11.3-5.1
	c2.7-3.8,2.1-10.3-1.2-14c-2.3-2.6-3.8-3.2-8-3.6C34,46.7,34,46.7,34,58.4 M110.6,53.8c0.9,3.2,1.8,6,2,6.3
	c0.2,0.3-4.5,2.4-10.4,4.7c-10.7,4.1-10.7,4.1-10.4,18.7C92.1,98,92.1,98,84.1,98C76,98,76,98,76,73.5S76,49,83.5,49s7.5,0,7.5,3
	c0,1.7,0.2,3,0.4,3c0.2,0,3.7-1.6,7.7-3.5c4-1.9,7.9-3.5,8.6-3.5S109.7,50.6,110.6,53.8 M166.9,49c8.8,2.5,15.1,11,15.1,20.2
	c0,4.8,0,4.8-16,4.8c-17.5,0-17.5,0-14,5.7c3,4.9,7.2,6.6,17.8,7.1c9.2,0.4,9.2,0.4,9.2,3.7c0,1.8-0.4,4.5-1,5.9
	c-0.9,2.4-1.4,2.6-7.3,2.6c-22.8,0-36-9.5-36-26c0-12.1,6.2-20.7,17.3-24.1C155.6,47.8,163,47.8,166.9,49 M223.4,52.8
	c1.2,7.1,1.4,6.9-6.9,7.5c-8.6,0.5-11.8,2.4-9.4,5.3c0.7,0.9,3.9,2.9,7,4.5c10.6,5.3,13.7,12.6,8.7,20.1c-3.9,5.9-13.1,8.9-27.3,8.9
	c-8.1,0-8.4-0.3-8.5-8.2c0-3.8,0-3.8,7.4-3.8c14.5,0,16.7-3.6,5.8-9.3c-9.4-5-11.7-7.6-11.7-13.7c0-4.2,0.5-5.4,3.5-8.5
	c4.5-4.6,10.3-6.4,21.6-6.4C222.7,49,222.7,49,223.4,52.8 M265.4,52.8c1.2,7.1,1.4,6.9-6.9,7.5c-8.6,0.5-11.8,2.4-9.4,5.3
	c0.7,0.9,3.9,2.9,7,4.5c10.6,5.3,13.7,12.6,8.7,20.1c-3.9,5.9-13.1,8.9-27.3,8.9c-8.1,0-8.4-0.3-8.5-8.2c0-3.8,0-3.8,7.4-3.8
	c14.5,0,16.7-3.6,5.8-9.3c-9.4-5-11.7-7.6-11.7-13.7c0-4.2,0.5-5.4,3.5-8.5c4.5-4.6,10.3-6.4,21.6-6.4C264.7,49,264.7,49,265.4,52.8
	 M154.2,59.6c-1.2,0.9-2.9,2.9-3.7,4.5c-1.5,2.9-1.5,2.9,8,2.9c9.5,0,9.5,0,8.4-3C164.9,58.4,158.9,56.3,154.2,59.6z"/>
</svg>
