<?xml version="1.0" encoding="utf-8"?>
<!-- Generator: Adobe Illustrator 26.5.0, SVG Export Plug-In . SVG Version: 6.00 Build 0)  -->
<svg version="1.1" id="Layer_1" xmlns="http://www.w3.org/2000/svg" xmlns:xlink="http://www.w3.org/1999/xlink" x="0px" y="0px"
	 viewBox="0 0 260 127" style="enable-background:new 0 0 260 127;" xml:space="preserve">
<path d="M0,63.5C0,127,0,127,130,127s130,0,130-63.5S260,0,130,0S0,0,0,63.5 M145,63c0,35,0,35-7.5,35s-7.5,0-7.5-35s0-35,7.5-35
	S145,28,145,63 M63.3,34.8c0.2,0.4,0.8,3.5,1.1,6.9c0.7,6.1,0.7,6.1-6.1,6.8c-10.6,1-17.1,3.4-22,8.1c-4.1,3.9-4.3,4.4-4.3,9.9
	c0,5.4,0.3,6.1,3.8,9.5c4.7,4.7,12.7,7.7,22.7,8.6c7.6,0.7,7.6,0.7,7,5.3c-1.3,10.2-0.4,9.5-10.8,8.8C34,97.4,19.6,88.7,15,74.7
	c-1.7-5.1-0.9-15.1,1.5-20.2c4.1-8.5,14.8-15.9,27.2-18.9C50,34.1,62.6,33.5,63.3,34.8 M106.6,50.8c4.7,2.4,10,8.1,12,12.9
	c0.8,1.8,1.4,6.4,1.4,10.1c0,17.2-14,28.7-30.9,25.3c-8.8-1.8-14-5.6-17.9-13.1c-3.1-6-3.3-7-2.9-13.6c0.7-11.2,6.3-19,16.4-22.8
	C90.1,47.4,101.3,48.1,106.6,50.8 M192.6,50.8c4.7,2.4,10,8.1,12,12.9c0.8,1.8,1.4,6.4,1.4,10.1c0,17.2-14,28.7-30.9,25.3
	c-8.8-1.8-14-5.6-17.9-13.1c-3.1-6-3.3-7-2.9-13.6c0.7-11.2,6.3-19,16.4-22.8C176.1,47.4,187.3,48.1,192.6,50.8 M249.6,53.8
	c0.9,3.2,1.8,6,2,6.3c0.2,0.3-4.5,2.4-10.4,4.7c-10.7,4.1-10.7,4.1-10.4,18.7c0.3,14.5,0.3,14.5-7.8,14.5c-8.1,0-8.1,0-8.1-24.5
	s0-24.5,7.5-24.5s7.5,0,7.5,3c0,1.7,0.2,3,0.4,3c0.2,0,3.7-1.6,7.7-3.5c4-1.9,7.9-3.5,8.6-3.5S248.7,50.6,249.6,53.8 M89.2,61.5
	c-7.7,5.6-6.8,22.5,1.4,25.6c8.7,3.3,16.3-6.9,13.4-17.9c-0.6-2.2-1.9-5-2.8-6.2C98.9,60.1,92.3,59.3,89.2,61.5 M175.2,61.5
	c-7.7,5.6-6.8,22.5,1.4,25.6c8.7,3.3,16.3-6.9,13.4-17.9c-0.6-2.2-1.9-5-2.8-6.2C184.9,60.1,178.3,59.3,175.2,61.5"/>
</svg>
