<?xml version="1.0" standalone="no"?><!DOCTYPE svg PUBLIC "-//W3C//DTD SVG 20010904//EN" "http://www.w3.org/TR/2001/REC-SVG-20010904/DTD/svg10.dtd"><svg version="1.0" xmlns="http://www.w3.org/2000/svg"preserveAspectRatio="xMidYMid meet"><path d="M28.2,10.1H17.6L14.4,0l-3.3,10.1H0.5L9,16.3L5.8,26.4l8.6-6.2l8.6,6.2l-3.3-10.1L28.2,10.1z M57,10.1H46.4L43.2,0l-3.3,10.1H29.3l8.6,6.2l-3.3,10.1l8.6-6.2l8.6,6.2l-3.3-10.1L57,10.1z M85.9,10.1H75.3L72,0l-3.3,10.1H58.1l8.6,6.2l-3.3,10.1l8.6-6.2l8.6,6.2l-3.3-10.1L85.9,10.1z M138.1,26.4l-8.6-6.2l-8.6,6.2l3.3-10.1l-8.6-6.2h10.6L129.6,0l3.3,10.1h10.6l-8.6,6.2L138.1,26.4z M129.6,19l6.7,4.9 l-2.6-7.9l6.7-4.9h-8.3l-2.6-7.9l-2.6,7.9h-8.3l6.7,4.9l-2.6,7.9L129.6,19z M106.1,16.3l8.6-6.2h0H104L100.8,0l0,0l0,0l-3.3,10.1H86.9h0l8.6,6.2l-3.3,10.1l0,0l0,0l8.6-6.2l8.6,6.2l0,0l0,0 L106.1,16.3z M111.6,11.1l-6.7,4.9l2.5,7.8l-6.7-4.8V3.3l2.5,7.8h0H111.6z" /></svg>