<?xml version="1.0" encoding="utf-8"?>
<!-- Generator: Adobe Illustrator 26.5.0, SVG Export Plug-In . SVG Version: 6.00 Build 0)  -->
<svg version="1.1" id="Layer_1" xmlns="http://www.w3.org/2000/svg" xmlns:xlink="http://www.w3.org/1999/xlink" x="0px" y="0px"
	 viewBox="0 0 143 26.4" style="enable-background:new 0 0 143 26.4;" xml:space="preserve">
<path d="M27.7,10.1H17.1L13.9,0l-3.3,10.1H0l8.5,6.2L5.3,26.4l8.6-6.2l8.6,6.2l-3.3-10.1L27.7,10.1z M56.5,10.1H45.9L42.7,0
	l-3.3,10.1H28.8l8.6,6.2l-3.3,10.1l8.6-6.2l8.6,6.2L48,16.3L56.5,10.1z M85.4,10.1H74.8L71.5,0l-3.3,10.1H57.6l8.6,6.2l-3.3,10.1
	l8.6-6.2l8.6,6.2l-3.3-10.1L85.4,10.1z M137.6,26.4l-8.6-6.2l-8.6,6.2l3.3-10.1l-8.6-6.2h10.6L129.1,0l3.3,10.1H143l-8.6,6.2
	L137.6,26.4z M129.1,19l6.7,4.9l-2.6-7.9l6.7-4.9h-8.3L129,3.2l-2.6,7.9h-8.3l6.7,4.9l-2.6,7.9L129.1,19z M105.6,16.3l8.6-6.2l0,0
	h-10.7L100.3,0l0,0l0,0L97,10.1H86.4l0,0l8.6,6.2l-3.3,10.1l0,0l0,0l8.6-6.2l8.6,6.2l0,0l0,0L105.6,16.3z M111.1,11.1l-6.7,4.9
	l2.5,7.8l-6.7-4.8V3.3l2.5,7.8l0,0H111.1z"/>
</svg>
