<?xml version="1.0" encoding="utf-8"?>
<!-- Generator: Adobe Illustrator 27.3.1, SVG Export Plug-In . SVG Version: 6.00 Build 0)  -->
<svg version="1.1" id="Layer_1" xmlns="http://www.w3.org/2000/svg" xmlns:xlink="http://www.w3.org/1999/xlink" x="0px" y="0px"
	 viewBox="0 0 42.8 47.7" style="enable-background:new 0 0 42.8 47.7;" xml:space="preserve">
<style type="text/css">
	.st0{fill:none;}
	.st1{fill:#FFFFFF;}
</style>
<g>
	<path d="M42.5,20.9c-0.2-0.5-2.9-0.4-2.9-0.4l-9.3-0.5c-0.3-1.3-1.1-1.8-2.4-1.9c-0.1-0.6,0-1.2-0.2-1.6c-0.2-0.5-0.6-1-1-1.2
		c-0.4-0.2-0.6-0.4-0.7-0.9c-0.1-0.8-0.4-1.2-0.7-1.5c-0.5-0.5-1.1-0.6-2.1-0.7c0,0-0.1,0-0.1,0c-0.2-0.7-0.3-1.4-0.6-2
		c-0.3-0.7-0.8-1.3-1.2-1.9c1.4-1.7,1.3-3.2,0.1-5c-0.6-0.8-1.3-1-2.2-0.7c-0.6,0.2-1.2,0.6-1.7,0.9C17.1,3,16.7,2.3,16.2,2
		c-1.6-0.8-3.3-1.7-5-1.9C8.4-0.2,5.6,0.4,3,1.5C1.5,2.3,0.4,3.4,0,5c-0.1,0.7,0.1,1.4,0.2,2.1c0,0.6-0.3,3,0.1,3.7
		c0.4,0.9,0.9,1,1.6,1.2c0.8,0.2,1.8-0.6,1.8-1.5c0-2.3-2.2-3-2.5-3.3c0.6-0.5,1-2,1-2l2.6,0.2c0,0-0.3,1.5,1.1,1.8
		c0.3,0.5,0.8,2.9,0.9,3.1c0.2,1,1,1.7,1.8,2.4c-2.3,1.2-2.4,2.2-0.6,4c1.4,1.4,2.5,1.8,4.5-0.4c0.6,1,1.4,1.8,2.8,1.7
		c0.4,0,0.8-0.1,1.2-0.2c1-0.1,1.8,0.1,2.2,1.1c0.1,0.3,0.9,0.5,1.2,0.7c0,0-2,0.1-3,0.2c-0.9,0.1-5.4,2.1-5.4,3.5
		c-0.3,2.5-0.6,9.4-0.6,13.4c0,6.2,0.4,9,0.4,9.2c0.1,0.9,0.6,1.4,1.7,1.4c5.9,0,23.9,0.1,26.2,0c1.4-0.3,3.2-2.8,3.5-3.6
		C42.9,43.1,42.8,21.4,42.5,20.9z M27.1,19.9c0.2-0.1,0.3-0.3,0.5-0.4c0.4-0.3,0.9-0.4,1.3,0c0,0,0.1,0.1,0.1,0.1c0,0,0,0,0,0
		c0.1,0.1,0.1,0.1,0.1,0.2c0.1,0.3,0,0.6-0.3,0.8c-0.7,0.7-2.3,0.7-3.5,0.7C25.9,21,26.5,20.4,27.1,19.9z M26.5,17
		c0.3,0.6-0.6,2.6-0.9,2.9s-1.8,1.5-2.6,1.5c-0.1,0-0.4-0.4-0.8-0.6c-0.4-0.2-0.9-0.2-0.9-0.3c0-0.2,0.2-0.4,0.4-0.6
		c0.1-0.1,0.2-0.2,0.3-0.4c0.8-0.8,1.7-1.5,2.5-2.2C25.1,16.7,26.3,16.5,26.5,17z M16.5,17.1c-1.6,0.3-2.8-0.2-3.8-1.4
		c-0.2-0.3-0.5-0.6-0.9-0.9c-0.4,0.9-0.5,2.3-1.7,2c-0.9-0.2-2-0.9-2.2-1.7c-0.3-0.9,1-1.6,2-1.9c-0.5-0.8-1.2-1.4-1.6-2.2
		C7.7,10,7.9,8.9,8.7,8c1.7-1.9,3.8-3.2,6.3-3.8c0.6-0.2,1,0,1.4,0.5c0.3,0.4,0.8,0.7,1.2,1c0.3-0.5,0.5-1,0.8-1.3
		c0.3-0.3,0.8-0.8,1.2-0.8c0.9,0,1.2,0.9,1.5,1.5c0.3,0.6,0.4,1.2-0.2,1.7c-1,0.8-1.1,0.9-0.3,1.9c1.1,1.4,1.5,2.8,1.1,4.5
		C21.1,15.6,19.8,16.5,16.5,17.1z M19,17.8c0.6-0.3,1.1-0.6,1.7-0.8c1-0.4,1.6-1,1.9-2.1c0.1-0.5,1.4-1.5,1.8-1.2
		c0.4,0.3,0,1.9-0.5,2.4c-0.9,0.9-1.1,1.5-2,2.4c-0.6,0.6-1.7,0.5-2.2,0.1C19.4,18.5,19.3,18.2,19,17.8z M38.5,45.7
		c-0.6,0.4-25,0.6-25.6,0C12.1,44.9,12.4,24,13,23.4c0.6-0.6,25.6-0.2,26.1,0.1C39.5,23.8,39.6,44.9,38.5,45.7z"/>
	<path class="st0" d="M13,23.4c-0.6,0.6-0.9,21.5-0.1,22.2c0.6,0.6,25,0.4,25.6,0c1.1-0.7,1.1-21.9,0.6-22.2 M27.2,41.1
		c-0.8,0.2-1.8,0.2-2.6,0c-3-0.9-6-2-9.1-3c-0.1,0-0.2-0.1-0.4-0.2c0.9-0.5,1.8-0.8,2.8-0.4c1.6,0.6,3.2,1,4.8,1.6
		c2.2,0.8,4.3,0.8,6.4,0c1.6-0.6,3.3-1,4.8-1.6c1-0.4,1.8,0,2.7,0.5C33.5,39,30.4,40.1,27.2,41.1z M15.3,35.6
		c1.1-0.7,2.1-0.8,3.1-0.4c1.5,0.6,3.1,1,4.6,1.6c2.1,0.8,4.2,0.8,6.3,0c1.5-0.5,3-1,4.5-1.5c1.1-0.4,2-0.3,3,0.3
		c-0.2,0.1-0.4,0.2-0.6,0.3c-2.7,0.9-5.4,1.9-8.2,2.7c-0.9,0.3-1.9,0.5-2.7,0.3C22,37.9,18.7,36.8,15.3,35.6z M27.5,36.3
		c-0.8,0.2-1.7,0.3-2.5,0.1c-3.2-0.9-6.5-2-9.8-3c1.1-0.9,1.7-1,2.9-0.6c1.7,0.6,3.5,1.1,5.2,1.7c1.9,0.7,3.7,0.7,5.6,0
		c1.6-0.6,3.3-1.1,5-1.6c1.5-0.5,1.5-0.5,3.1,0.4C33.7,34.3,30.6,35.4,27.5,36.3z M36.2,31.1C33.5,32,30.7,33,28,33.9
		c-1.2,0.4-2.5,0.4-3.7,0c-2.9-1-5.9-1.9-8.9-2.9c0-0.1,0-0.3,0-0.4c3.4-1,6.9-2,10.4-3c0.5-0.1,1.2-0.1,1.7,0.1c3.2,1,6.3,2,9.7,3
		C36.7,30.9,36.5,31,36.2,31.1z"/>
	<path class="st1" d="M11.1,11.7c-0.1,0.1-0.6-0.1-0.8-0.4C10,11.1,9.9,9.7,9.9,9.7s0.3-1.4,1-1.2c0.5,0.1,0.8,0.8,1.2,1.3
		C11.7,10.6,11.5,11.2,11.1,11.7z M13.8,5.6c0.8-0.3,1.5,0,2.1,0.6c0.2,0.2,0.5,0.6,0.4,0.8c-0.1,0.2-2.3,0.5-2.5,0.4
		c-0.3-0.2-0.7-0.6-0.7-1C13.1,6.2,13.5,5.7,13.8,5.6z M12.7,10.4c0-0.9,0.8-1.7,1.7-1.8c1.1,0,2.2,0.9,2.2,1.9
		c0,0.9-0.8,1.7-1.8,1.7C13.7,12.2,12.7,11.3,12.7,10.4z M18.9,14.3c-1,1.3-2.6,0.6-3.9,0.8c0-0.5,0-0.8,0-1.2
		c0.3,0,0.6-0.1,0.8-0.1c1.7-0.1,2.2-0.5,2.3-2.1c0.1-0.8,0.5-1,1.3-0.9C19.7,11.9,19.8,13.2,18.9,14.3z"/>
	<path d="M25.8,27.6c-3.5,1-7,2-10.4,3c0,0.1,0,0.3,0,0.4c2.9,1,5.9,1.9,8.9,2.9c1.2,0.4,2.5,0.4,3.7,0c2.7-0.9,5.5-1.8,8.2-2.8
		c0.3-0.1,0.5-0.2,1-0.4c-3.3-1.1-6.5-2.1-9.7-3C26.9,27.5,26.3,27.5,25.8,27.6z"/>
	<path d="M33.8,32.9c-1.7,0.5-3.3,1-5,1.6c-1.9,0.7-3.7,0.7-5.6,0c-1.7-0.6-3.5-1.1-5.2-1.7c-1.1-0.4-1.7-0.3-2.9,0.6
		c3.3,1,6.6,2.1,9.8,3c0.8,0.2,1.7,0.1,2.5-0.1c3.1-0.9,6.2-2,9.5-3.1C35.3,32.4,35.3,32.4,33.8,32.9z"/>
	<path d="M28,38.6c2.7-0.8,5.4-1.8,8.2-2.7c0.2-0.1,0.4-0.2,0.6-0.3c-1-0.7-1.9-0.7-3-0.3c-1.5,0.6-3,1-4.5,1.5
		c-2.1,0.8-4.2,0.8-6.3,0c-1.5-0.5-3.1-1-4.6-1.6c-1-0.4-2-0.3-3.1,0.4c3.4,1.1,6.7,2.3,10,3.2C26.1,39.1,27.1,38.9,28,38.6z"/>
	<path d="M34.1,37.4c-1.6,0.6-3.2,1.1-4.8,1.6c-2.2,0.8-4.3,0.8-6.4,0c-1.6-0.6-3.2-1-4.8-1.6c-1-0.4-1.9-0.1-2.8,0.4
		c0.1,0.1,0.3,0.2,0.4,0.2c3,1,6,2.1,9.1,3c0.8,0.2,1.8,0.3,2.6,0c3.2-1,6.3-2.1,9.6-3.1C35.8,37.4,35.1,37,34.1,37.4z"/>
	<path d="M16.6,10.5c0-1-1.1-1.9-2.2-1.9c-0.9,0-1.7,0.9-1.7,1.8c0,0.9,1,1.8,2,1.8C15.8,12.1,16.6,11.4,16.6,10.5z"/>
	<path d="M18.1,11.6c-0.1,1.6-0.6,2-2.3,2.1c-0.3,0-0.5,0.1-0.8,0.1c0,0.4,0,0.7,0,1.2c1.4-0.2,2.9,0.5,3.9-0.8
		c0.9-1.1,0.7-2.4,0.5-3.6C18.6,10.6,18.1,10.8,18.1,11.6z"/>
	<path d="M10.9,8.5c-0.7-0.2-1,1.2-1,1.2s0.1,1.3,0.3,1.6c0.2,0.3,0.7,0.5,0.8,0.4c0.4-0.5,0.7-1.1,1.1-1.9
		C11.7,9.3,11.3,8.6,10.9,8.5z"/>
	<path d="M13.8,7.4C14,7.6,16.1,7.3,16.2,7c0.1-0.2-0.2-0.6-0.4-0.8c-0.6-0.6-1.3-0.9-2.1-0.6c-0.3,0.1-0.7,0.6-0.7,0.8
		C13.1,6.8,13.4,7.2,13.8,7.4z"/>
</g>
</svg>
